<svg width="275" height="393" viewBox="0 0 275 393" fill="none" xmlns="http://www.w3.org/2000/svg">
<path d="M92.287 293.224C92.287 298.173 91.007 302.867 88.447 307.304C85.9723 311.741 82.0897 315.368 76.799 318.184C71.5937 320.915 64.8097 322.28 56.447 322.28C52.2657 322.28 48.5963 322.067 45.439 321.64C42.367 321.299 39.4657 320.701 36.735 319.848C34.0043 318.995 31.1883 317.885 28.287 316.52V294.504C33.2363 296.979 38.2283 298.899 43.263 300.264C48.2977 301.544 52.863 302.184 56.959 302.184C59.4337 302.184 61.439 301.885 62.975 301.288C64.511 300.691 65.663 299.88 66.431 298.856C67.199 297.832 67.583 296.68 67.583 295.4C67.583 293.779 67.0283 292.413 65.919 291.304C64.8097 290.195 63.0603 289.043 60.671 287.848C58.2817 286.653 55.0817 285.16 51.071 283.368C47.6577 281.832 44.5857 280.211 41.855 278.504C39.1243 276.797 36.7777 274.877 34.815 272.744C32.9377 270.611 31.487 268.136 30.463 265.32C29.439 262.419 28.927 259.005 28.927 255.08C28.927 249.192 30.3777 244.285 33.279 240.36C36.1803 236.349 40.191 233.363 45.311 231.4C50.5163 229.352 56.5323 228.328 63.359 228.328C69.3323 228.328 74.7083 229.011 79.487 230.376C84.2657 231.656 88.5323 233.149 92.287 234.856L84.735 253.928C80.8097 252.136 76.927 250.728 73.087 249.704C69.3323 248.595 65.8337 248.04 62.591 248.04C60.4577 248.04 58.7083 248.296 57.343 248.808C55.9777 249.32 54.9537 250.045 54.271 250.984C53.6737 251.837 53.375 252.819 53.375 253.928C53.375 255.379 53.9297 256.659 55.039 257.768C56.1483 258.877 57.983 260.115 60.543 261.48C63.1883 262.76 66.7723 264.424 71.295 266.472C75.7323 268.435 79.487 270.611 82.559 273C85.7163 275.304 88.1057 278.077 89.727 281.32C91.4337 284.477 92.287 288.445 92.287 293.224ZM128.018 248.936C136.978 248.936 143.975 251.155 149.01 255.592C154.045 260.029 156.562 266.344 156.562 274.536V321H139.666L134.93 311.656H134.418C132.455 314.131 130.407 316.179 128.274 317.8C126.226 319.336 123.837 320.445 121.106 321.128C118.375 321.896 115.047 322.28 111.122 322.28C107.026 322.28 103.357 321.469 100.114 319.848C96.8713 318.141 94.3113 315.624 92.434 312.296C90.5567 308.883 89.618 304.573 89.618 299.368C89.618 291.773 92.2207 286.141 97.426 282.472C102.717 278.803 110.354 276.755 120.338 276.328L132.114 275.944V274.92C132.114 271.763 131.346 269.544 129.81 268.264C128.274 266.899 126.183 266.216 123.538 266.216C120.722 266.216 117.607 266.728 114.194 267.752C110.781 268.691 107.325 269.928 103.826 271.464L96.786 255.336C100.882 253.203 105.49 251.624 110.61 250.6C115.815 249.491 121.618 248.936 128.018 248.936ZM126.61 289.64C122.173 289.811 119.015 290.621 117.138 292.072C115.346 293.437 114.45 295.4 114.45 297.96C114.45 300.349 115.09 302.141 116.37 303.336C117.65 304.445 119.357 305 121.49 305C124.477 305 126.994 304.061 129.042 302.184C131.175 300.307 132.242 297.875 132.242 294.888V289.384L126.61 289.64ZM193.944 322.28C186.776 322.28 180.547 321 175.256 318.44C169.965 315.88 165.869 311.912 162.968 306.536C160.067 301.16 158.616 294.291 158.616 285.928C158.616 277.309 160.237 270.312 163.48 264.936C166.723 259.475 171.117 255.464 176.664 252.904C182.296 250.259 188.696 248.936 195.864 248.936C200.216 248.936 204.312 249.405 208.152 250.344C212.077 251.283 215.704 252.605 219.032 254.312L211.864 272.36C208.963 271.08 206.232 270.056 203.672 269.288C201.197 268.52 198.595 268.136 195.864 268.136C193.389 268.136 191.213 268.776 189.336 270.056C187.459 271.336 186.008 273.299 184.984 275.944C183.96 278.504 183.448 281.789 183.448 285.8C183.448 289.896 183.96 293.181 184.984 295.656C186.093 298.131 187.587 299.965 189.464 301.16C191.341 302.269 193.517 302.824 195.992 302.824C199.491 302.824 202.989 302.269 206.488 301.16C210.072 300.051 213.443 298.515 216.6 296.552V316.008C213.699 317.885 210.413 319.421 206.744 320.616C203.075 321.725 198.808 322.28 193.944 322.28ZM243.744 250.216V321H219.296V250.216H243.744ZM231.584 221.672C235.083 221.672 238.112 222.397 240.672 223.848C243.317 225.299 244.64 228.2 244.64 232.552C244.64 236.733 243.317 239.592 240.672 241.128C238.112 242.579 235.083 243.304 231.584 243.304C228 243.304 224.928 242.579 222.368 241.128C219.893 239.592 218.656 236.733 218.656 232.552C218.656 228.2 219.893 225.299 222.368 223.848C224.928 222.397 228 221.672 231.584 221.672Z" fill="black"/>
<rect x="156.9" y="140.746" width="11.2597" height="81.6329" fill="black"/>
<rect x="219.735" y="53.5651" width="11.2597" height="150.098" rx="5.62986" transform="rotate(89.8583 219.735 53.5651)" fill="#A94438"/>
<path d="M178.094 220.887C184.38 220.87 189.49 225.952 189.507 232.238L156.95 232.328L156.919 220.945L178.094 220.887Z" fill="black"/>
<path d="M92.0273 70.243H199.254V109.782C199.254 139.392 175.251 163.395 145.641 163.395C116.031 163.395 92.0273 139.392 92.0273 109.782V70.243Z" fill="#CC8F37" stroke="black" stroke-width="11"/>
<path d="M221.816 162.718L241.609 166.49L240.25 173.621C239.208 179.087 233.933 182.673 228.467 181.632C223.002 180.59 219.415 175.315 220.457 169.849L221.816 162.718Z" fill="#A94438" stroke="black" stroke-width="8"/>
<path d="M204.568 64.944L86.5878 64.8078C86.6203 36.6031 109.511 13.765 137.716 13.7976L153.558 13.8159C181.763 13.8484 204.601 36.7393 204.568 64.944Z" fill="#A94438"/>
<circle cx="147.048" cy="9.85225" r="9.85225" fill="black"/>
<circle cx="165.345" cy="98.5223" r="8.44479" fill="black"/>
<circle cx="127.863" cy="98.5223" r="8.44479" fill="black"/>
<path d="M140.011 139.503L142.352 135.117L231.52 182.706C230.227 185.129 227.215 186.044 224.792 184.751L140.011 139.503Z" fill="black"/>
<path d="M232.104 126.672C243.325 138.1 224.09 138.1 232.104 146.376" stroke="black" stroke-width="3"/>
<path d="M237.735 137.932C248.955 149.36 229.72 149.36 237.735 157.636" stroke="black" stroke-width="3"/>
</svg>
